<?xml version="1.0" standalone="no"?>
<!DOCTYPE svg PUBLIC "-//W3C//DTD SVG 20010904//EN"
 "http://www.w3.org/TR/2001/REC-SVG-20010904/DTD/svg10.dtd">
<svg version="1.0" xmlns="http://www.w3.org/2000/svg"
 width="260.000000pt" height="260.000000pt" viewBox="0 0 260.000000 260.000000"
 preserveAspectRatio="xMidYMid meet">
<metadata>
Created by potrace 1.14, written by Peter Selinger 2001-2017
</metadata>
<g transform="translate(0.000000,260.000000) scale(0.100000,-0.100000)"
fill="#000000" stroke="none">
<path d="M1094 2337 c-210 -59 -374 -220 -439 -430 -30 -97 -38 -179 -26 -263
38 -263 207 -465 456 -544 107 -34 263 -32 370 4 111 38 178 79 255 155 105
103 159 209 185 358 53 304 -135 612 -435 713 -100 34 -260 37 -366 7z m303
-182 c89 -30 144 -66 204 -133 89 -99 131 -238 110 -366 -32 -201 -180 -351
-382 -387 -119 -21 -251 17 -354 102 -64 52 -117 131 -145 215 -18 54 -22 82
-18 158 3 81 8 100 42 171 102 211 329 311 543 240z"/>
<path d="M935 1000 c-11 -5 -78 -32 -150 -60 -305 -120 -514 -268 -586 -416
-42 -84 -44 -144 -6 -181 l27 -28 1040 -3 1039 -2 33 29 c29 25 33 35 32 75
-2 103 -105 241 -256 341 -152 103 -495 255 -573 255 -32 0 -52 -13 -151 -96
-63 -53 -120 -94 -126 -91 -7 3 -62 46 -122 96 -94 79 -113 91 -145 90 -20 0
-45 -4 -56 -9z m163 -294 c66 -57 132 -106 146 -110 38 -9 64 5 177 101 57 48
111 94 120 101 13 10 32 6 105 -24 182 -72 449 -224 462 -261 3 -10 -171 -13
-849 -13 l-852 0 19 21 c64 71 265 182 479 265 33 13 63 23 66 23 3 1 60 -46
127 -103z"/>
</g>
</svg>
